# xmcd
#
# Track frame offsets: 
#        150
#        11634
#        29114
#        44156
#        58953
#        75314
#        90807
#        101557
#        124029
#        138559
#        153892
#        168507
#
# Disc length: 2478 seconds
#
# Revision: 0
# Processed by: cddbd v1.4PL0 Copyright (c) Steve Scherf et al.
# Submitted via: ExactAudioCopy v0.95a3
#
DISCID=9909ac0c
DTITLE=Eddie Rabbitt - Original Artist Hit List - Eddie Rabbitt
DYEAR=2003
DGENRE=
TTITLE0=I'll Make Everything Alright
TTITLE1=Great Old American Town
TTITLE2=It's Me I'm Runnin' From
TTITLE3=Drivin' My Life Away
TTITLE4=On Second Thought
TTITLE5=Love May Never Pass This Way Again
TTITLE6=Two Dollars In The Jukebox
TTITLE7=Suspicions
TTITLE8=American Boy
TTITLE9=I'm There
TTITLE10=I Love A Rainy Night
TTITLE11=You've Come To The Right Heart
EXTD=
EXTT0=
EXTT1=
EXTT2=
EXTT3=
EXTT4=
EXTT5=
EXTT6=
EXTT7=
EXTT8=
EXTT9=
EXTT10=
EXTT11=
PLAYORDER=
